<?xml version="1.0" encoding="UTF-8"?>
<svg width="18px" height="18px" viewBox="0 0 18 18" version="1.1" xmlns="http://www.w3.org/2000/svg" xmlns:xlink="http://www.w3.org/1999/xlink">
    <!-- Generator: Sketch 50.2 (55047) - http://www.bohemiancoding.com/sketch -->
    <title>dribbble</title>
    <desc>Created with Sketch.</desc>
    <defs></defs>
    <g id="Page-1" stroke="none" stroke-width="1" fill="none" fill-rule="evenodd">
        <g id="Artboard-Copy-4" transform="translate(-1817.000000, -680.000000)" fill="#FFFFFF" fill-rule="nonzero">
            <g id="Group-6" transform="translate(1817.000000, 680.000000)">
                <g id="dribbble">
                    <path d="M16.7932876,4.48232976 C15.9884569,3.10351763 14.8967555,2.0118212 13.5178961,1.20703526 C12.1387903,0.402290358 10.6333038,0 9.00028732,0 C7.36743499,0 5.86149699,0.402290358 4.48263753,1.20703526 C3.10369597,2.01169807 2.01199456,3.10339449 1.2071639,4.48232976 C0.402292193,5.86134712 0,7.36727825 0,9 C0,10.6328038 0.402415331,12.1384887 1.20704076,13.5175881 C2.01183038,14.8964003 3.10353178,15.9880967 4.48247334,16.7929647 C5.86149699,17.5976686 7.36731185,18 9.00012314,18 C10.6329344,18 12.1389135,17.5976686 13.517855,16.7929647 C14.8967145,15.988384 15.9883749,14.8964003 16.7931234,13.5175881 C17.5977489,12.1386118 18,10.6327218 18,9 C18.000041,7.36711407 17.5977489,5.8611419 16.7932876,4.48232976 Z M9.00016418,1.31252309 C10.9375781,1.31252309 12.6290442,1.95312564 14.0743161,3.2342897 L13.9278228,3.43923162 C13.8692501,3.52140541 13.7227568,3.67943193 13.4884661,3.91392686 C13.2541342,4.14821656 12.9982533,4.37101342 12.7209462,4.58190699 C12.443393,4.79288265 12.0666724,5.03308295 11.5899227,5.30263104 C11.1133372,5.57217912 10.6055567,5.80864426 10.066417,6.01173911 C9.16804247,4.35533391 8.20719583,2.86315314 7.18371293,1.53511472 C7.80100426,1.38669294 8.40643328,1.31252309 9.00016418,1.31252309 Z M2.97682267,4.23018512 C3.72677478,3.28506342 4.64070581,2.55838772 5.71894411,2.05065058 C6.6876716,3.33969544 7.64071949,4.81636088 8.57829303,6.48035956 C6.20328733,7.10536469 3.83616247,7.41788778 1.47675426,7.41776468 C1.7268888,6.23814801 2.22687056,5.17551205 2.97682267,4.23018512 Z M1.82819042,11.771703 C1.48438882,10.8928293 1.31252907,9.9688462 1.31252907,9 C1.31252907,8.89057177 1.31655159,8.80852112 1.32426824,8.75388909 C4.15254531,8.75388909 6.78154388,8.39071543 9.2112229,7.66399869 C9.46127535,8.1483397 9.66831155,8.58194804 9.83237255,8.96486475 C9.80072606,8.98046218 9.75032153,8.99794771 9.67996862,9.01752658 C9.60941049,9.0370644 9.55875968,9.05060953 9.52723632,9.05853138 L9.09374914,9.21085252 C8.79674003,9.32028075 8.40795199,9.50781923 7.92767232,9.77330378 C7.44726953,10.0391988 6.93751881,10.355416 6.39842018,10.7226942 C5.85932155,11.0900135 5.30265522,11.5763248 4.72850328,12.1819973 C4.15426924,12.7874236 3.67185519,13.4376308 3.28122007,14.1329065 C2.65621209,13.4376308 2.17190992,12.6503304 1.82819042,11.771703 Z M9.00016418,16.6876 C7.17197377,16.6876 5.53916248,16.1015885 4.10160718,14.9298116 L4.27740735,15.0587777 C4.55081499,14.4570455 4.95310718,13.8788737 5.48448916,13.3243032 C6.01578904,12.7697328 6.52746892,12.322251 7.01965193,11.9823092 C7.51183494,11.6426959 8.0469521,11.3224151 8.6251676,11.0212617 C9.20325997,10.720683 9.59758923,10.529081 9.80873004,10.4473177 C10.0197067,10.365308 10.1877081,10.3007019 10.3126933,10.2537454 L10.3360074,10.2419653 L10.3596089,10.2419653 C11.1249943,12.249764 11.672138,14.1952141 12.0001368,16.0780282 C11.0313683,16.4844641 10.0315279,16.6874769 9.00016418,16.6876 Z M15.4692656,13.1543324 C14.8910912,14.0489677 14.1682705,14.7893527 13.3013372,15.375077 C12.9807677,13.5782539 12.4810322,11.7460083 11.8011456,9.87895579 C13.3558463,9.63649797 14.9534812,9.74998974 16.5941322,10.2185691 C16.4221904,11.281082 16.0471528,12.2598613 15.4692656,13.1543324 Z M16.5705308,8.89455322 C16.4924202,8.87903789 16.3946485,8.86130608 16.2775031,8.84189139 C16.1603577,8.82247671 16.0176407,8.79891639 15.8496393,8.77157985 C15.6818841,8.74424332 15.4940985,8.71891803 15.2872265,8.69543981 C15.0801492,8.67200263 14.8594857,8.65057669 14.6249076,8.63103887 C14.3906169,8.61141895 14.1405644,8.59594467 13.8750787,8.58412347 C13.6091414,8.57246645 13.3397563,8.56655584 13.0662665,8.56655584 C12.7930641,8.56655584 12.5057008,8.57447769 12.2050797,8.58999302 C11.9043764,8.60538522 11.6134421,8.63305012 11.3322357,8.67204367 C11.3086343,8.63292698 11.2794095,8.56844395 11.2442741,8.47855354 C11.2091797,8.38878627 11.183567,8.3203218 11.168421,8.27344744 C11.0197933,7.94532693 10.8478515,7.57419037 10.6523492,7.16024299 C11.1914478,6.94134548 11.7052621,6.68948816 12.1938331,6.40426056 C12.6819525,6.11903296 13.0723003,5.86528753 13.3654511,5.64265485 C13.6584787,5.41977589 13.9357858,5.1834339 14.1974542,4.93350573 C14.4592869,4.68353651 14.6289712,4.50978943 14.7073691,4.41210032 C14.7856029,4.31424701 14.8597731,4.21861019 14.9300028,4.12498461 L14.941783,4.1131634 C16.0823703,5.50379674 16.6646493,7.1052826 16.6877993,8.91794935 L16.5705308,8.89455322 Z" id="Shape"></path>
                </g>
            </g>
        </g>
    </g>
</svg>