<?xml version="1.0" encoding="UTF-8"?>
<svg width="10px" height="19px" viewBox="0 0 10 19" version="1.1" xmlns="http://www.w3.org/2000/svg" xmlns:xlink="http://www.w3.org/1999/xlink">
    <!-- Generator: Sketch 50.2 (55047) - http://www.bohemiancoding.com/sketch -->
    <title>facebook</title>
    <desc>Created with Sketch.</desc>
    <defs></defs>
    <g id="Page-1" stroke="none" stroke-width="1" fill="none" fill-rule="evenodd">
        <g id="Artboard-Copy-4" transform="translate(-1821.000000, -718.000000)" fill="#FFFFFF" fill-rule="nonzero">
            <g id="Group-6" transform="translate(1817.000000, 680.000000)">
                <g id="facebook" transform="translate(4.000000, 38.000000)">
                    <path d="M9.45075472,0.00391752577 L7.09886792,0 C4.45660377,0 2.7490566,1.81871134 2.7490566,4.63364948 L2.7490566,6.77007216 L0.384339623,6.77007216 C0.18,6.77007216 0.0145283019,6.94205155 0.0145283019,7.15418557 L0.0145283019,10.2496186 C0.0145283019,10.4617526 0.180188679,10.6335361 0.384339623,10.6335361 L2.7490566,10.6335361 L2.7490566,18.444299 C2.7490566,18.656433 2.9145283,18.8282165 3.11886792,18.8282165 L6.20415094,18.8282165 C6.40849057,18.8282165 6.57396226,18.6562371 6.57396226,18.444299 L6.57396226,10.6335361 L9.33886792,10.6335361 C9.54320755,10.6335361 9.70867925,10.4617526 9.70867925,10.2496186 L9.70981132,7.15418557 C9.70981132,7.0523299 9.67075472,6.95478351 9.60150943,6.88270103 C9.53226415,6.81061856 9.43792453,6.77007216 9.33981132,6.77007216 L6.57396226,6.77007216 L6.57396226,4.959 C6.57396226,4.08852577 6.77377358,3.64662887 7.86603774,3.64662887 L9.45037736,3.64604124 C9.6545283,3.64604124 9.82,3.47406186 9.82,3.26212371 L9.82,0.387835052 C9.82,0.176092784 9.65471698,0.00430927835 9.45075472,0.00391752577 Z" id="Shape"></path>
                </g>
            </g>
        </g>
    </g>
</svg>