<?xml version="1.0" encoding="UTF-8"?>
<svg width="424px" height="416px" viewBox="0 0 424 416" version="1.1" xmlns="http://www.w3.org/2000/svg" xmlns:xlink="http://www.w3.org/1999/xlink">
    <!-- Generator: Sketch 50.2 (55047) - http://www.bohemiancoding.com/sketch -->
    <title>Shape</title>
    <desc>Created with Sketch.</desc>
    <defs></defs>
    <g id="Page-1" stroke="none" stroke-width="1" fill="none" fill-rule="evenodd">
        <g id="Artboard-Copy-4" transform="translate(-1072.000000, -2300.000000)" fill="#000000" fill-rule="nonzero" stroke="#FF103D" stroke-width="2">
            <path d="M1338.62501,2718.97922 L1201.3301,2718.97922 C1201.02739,2718.97922 1199.67291,2718.94806 1197.10761,2718.7455 C1187.32355,2718.03912 1187.14398,2711.9518 1186.48213,2689.29057 C1186.12299,2676.7939 1185.84594,2668.95622 1185.09174,2665.41394 C1183.58334,2658.29303 1151.62995,2589.99769 1152.94852,2536.90506 L1152.74842,2533.78349 C1149.42379,2524.88624 1110.72879,2427.46838 1095.6756,2389.62001 C1093.52075,2382.57701 1087.74369,2364.00342 1105.05434,2356.76824 C1123.46295,2349.07598 1134.37574,2368.35595 1139.66539,2378.61921 L1139.886,2379.04512 C1146.74049,2391.84822 1169.79741,2434.84899 1178.90423,2450.58668 C1183.71674,2458.9126 1190.51992,2462.50162 1195.37347,2464.04423 C1197.5745,2464.74541 1199.08289,2466.83338 1199.08289,2469.19144 L1199.08289,2524.90702 C1199.08289,2544.98685 1213.28953,2559.56629 1232.86791,2559.56629 C1242.71353,2559.56629 1251.27138,2555.29167 1256.95609,2547.53189 C1257.95655,2546.16069 1259.54704,2545.48547 1261.21449,2545.37121 C1262.89219,2545.38159 1264.46216,2546.19705 1265.45236,2547.57864 C1270.92672,2555.19817 1280.75182,2560.25189 1289.40715,2559.48319 C1291.55687,2559.29101 1293.62963,2560.66222 1294.50183,2562.71902 C1295.37917,2564.77064 1294.91741,2567.15986 1293.35258,2568.72324 C1287.81666,2574.24441 1283.14268,2579.95257 1279.45891,2585.6867 C1278.65853,2586.92806 1278.99715,2588.60571 1280.22337,2589.41596 C1281.39828,2590.20025 1283.10164,2589.84706 1283.87636,2588.63687 C1314.229,2541.38225 1402.03926,2516.70056 1402.31631,2516.47722 C1402.48049,2516.34737 1402.65493,2516.22272 1402.8345,2516.11365 C1409.46324,2511.98445 1444.25899,2461.18755 1471.74875,2448.64934 C1487.90502,2441.27911 1516.44143,2436.25136 1532.30525,2449.7141 C1534.81925,2451.84881 1535.31178,2455.24047 1534.83977,2458.12311 C1533.75721,2464.6675 1483.08225,2511.02876 1480.01415,2515.59944 C1453.47868,2555.06832 1396.23655,2634.66052 1369.48559,2653.37435 C1364.06254,2657.17113 1359.50144,2675.36557 1353.45759,2705.52168 C1351.06159,2717.47298 1343.87875,2718.93767 1338.69171,2719 C1338.66606,2718.97922 1338.64554,2718.97922 1338.62501,2718.97922 Z M1287.66787,2554.16458 C1274.51301,2554.16458 1263.81057,2541.03425 1263.81057,2524.89663 L1263.81057,2403.76316 C1263.81057,2390.24329 1270.07504,2375.79889 1287.66787,2375.79889 C1304.74765,2375.79889 1312.39224,2389.84335 1312.39224,2403.76316 L1312.39224,2524.90182 C1312.38711,2539.05016 1305.89177,2554.16458 1287.66787,2554.16458 Z M1232.87817,2554.16458 C1214.16686,2554.16458 1204.37767,2539.43971 1204.37767,2524.89663 L1204.37767,2424.46108 C1204.37767,2409.43496 1216.36276,2398.53284 1232.87817,2398.53284 C1245.48919,2398.53284 1258.53118,2408.22996 1258.53118,2424.46108 L1258.53118,2524.90182 C1258.52605,2539.4449 1249.71168,2554.16458 1232.87817,2554.16458 Z M1325.27006,2540.22919 C1325.2598,2540.224 1325.1264,2540.10973 1325.11614,2540.10453 C1320.28311,2537.07646 1317.67677,2531.7111 1317.67677,2524.90182 L1317.67677,2403.76316 C1317.67677,2389.86932 1325.97808,2375.79889 1341.85216,2375.79889 C1355.76636,2375.79889 1366.25331,2387.81771 1366.25331,2403.76316 L1366.25331,2520.06625 C1366.25331,2522.24252 1364.97579,2524.20064 1363.00051,2525.04206 C1351.62596,2529.87763 1340.91839,2535.15989 1331.17025,2540.74339 C1330.36988,2541.20046 1326.22948,2541.02386 1325.27006,2540.22919 Z M1376.81722,2519.15211 C1375.74492,2519.15211 1372.15863,2518.9911 1371.25565,2518.34705 C1369.84473,2517.33423 1369.00331,2515.69294 1369.00331,2513.93218 L1369.00331,2504.42724 C1369.00331,2502.16268 1370.3937,2500.13703 1372.48186,2499.36313 C1374.57514,2498.58923 1379.43896,2499.05669 1380.86526,2500.79667 C1382.82515,2503.18589 1384.89279,2505.45565 1387.01172,2507.53842 C1388.33542,2508.84211 1388.89979,2510.75868 1388.50473,2512.58695 C1388.10454,2514.42042 1386.79624,2515.90589 1385.05183,2516.51358 C1383.06116,2517.20957 1377.42263,2519.15211 1376.81722,2519.15211 Z" id="Shape" transform="translate(1314.000000, 2537.000000) rotate(-70.000000) translate(-1314.000000, -2537.000000) "></path>
        </g>
    </g>
</svg>