<?xml version="1.0" encoding="UTF-8"?>
<svg width="39px" height="60px" viewBox="0 0 39 60" version="1.1" xmlns="http://www.w3.org/2000/svg" xmlns:xlink="http://www.w3.org/1999/xlink">
    <!-- Generator: Sketch 50.2 (55047) - http://www.bohemiancoding.com/sketch -->
    <title>Shape</title>
    <desc>Created with Sketch.</desc>
    <defs></defs>
    <g id="Page-1" stroke="none" stroke-width="1" fill="none" fill-rule="evenodd">
        <g id="Artboard-Copy-4" transform="translate(-189.000000, -757.000000)" fill-rule="nonzero" stroke="#FF0136" stroke-width="2">
            <g id="noun_861430_cc" transform="translate(208.500000, 787.000000) scale(1, -1) translate(-208.500000, -787.000000) translate(190.000000, 758.000000)">
                <path d="M36.9863779,27.3894129 C36.9863779,27.3894129 36.4816221,37.02493 36.5387423,37.9726477 C37.0032808,45.5857096 31.1595376,48.9114216 31.1595376,51.5283754 C31.1595376,54.1453292 31.1694462,58 31.1694462,58 L10.971637,58 C10.971637,58 10.8375795,55.7252454 10.6633047,52.7771124 C10.4890299,49.8289795 4.03503335,49.4885203 2.06730173,44.9047912 C0.898669656,41.4851193 0.0453642389,33.6887779 0.0453642389,33.6887779 C-0.346316936,30.6136252 1.84173534,27.8046919 4.93205318,27.4160928 L6.61942967,38.2046471 L6.61942967,3.9139688 C6.60427534,2.07827318 8.32604051,0.020438076 10.8445738,0.000138124371 C13.3619413,-0.0195818287 15.30461,2.07595318 15.3197643,3.91164881 L15.3197643,25.2167381 L15.6088624,22.5301845 C15.7813886,20.9253283 17.5375424,19.796651 19.530337,20.0083505 C21.5237144,20.22063 22.9989302,21.6938265 22.8258211,23.2986826 L22.7378095,24.1234407 C22.9103357,22.5185845 24.6664895,21.3899072 26.6592841,21.6021867 C28.6526615,21.8144662 30.1278773,23.2876627 29.9553511,24.8919388 C29.9553511,24.8919388 29.7729163,26.5878548 29.7734991,26.5884348 C29.9652597,25.0003986 31.7103392,23.8873812 33.6908937,24.0985007 C35.6825226,24.3113602 37.1583213,25.7845567 36.9863779,27.3894129 Z" id="Shape"></path>
            </g>
        </g>
    </g>
</svg>