<?xml version="1.0" encoding="UTF-8"?>
<svg width="342px" height="522px" viewBox="0 0 342 522" version="1.1" xmlns="http://www.w3.org/2000/svg" xmlns:xlink="http://www.w3.org/1999/xlink">
    <!-- Generator: Sketch 50.2 (55047) - http://www.bohemiancoding.com/sketch -->
    <title>Group 14</title>
    <desc>Created with Sketch.</desc>
    <defs></defs>
    <g id="Page-1" stroke="none" stroke-width="1" fill="none" fill-rule="evenodd">
        <g id="Artboard-Copy-4" transform="translate(-1388.000000, -2227.000000)" stroke="#3B3B3B">
            <g id="Group-14" transform="translate(1389.000000, 2228.000000)">
                <path d="M0,186.845788 L0,242.140576 L226.308345,79.5088459 L226.308345,386.34071 C226.308345,386.34071 225.222065,454.646037 183.58133,491.509229 C178.149929,496.207479 172.356436,499.460114 166.925035,501.989941 C157.510608,506.326787 147.009901,507.049594 136.871287,505.603979 C68.7977369,494.40046 61.1937765,411.638979 60.4695898,384.895095 L60.4695898,261.29498 L0,305.024845 L0,392.123172 C0,395.375806 4.34512023,530.17944 154.613861,518.253114 C158.234795,517.89171 170.908062,515.000479 174.528996,513.916267 C198.065064,505.965383 230.653465,485.00396 245.137199,428.62496 C250.930693,406.940729 251.65488,390.316152 251.65488,390.316152 L256,0 L0,186.845788 Z" id="Shape" fill-rule="nonzero"></path>
                <circle id="Oval-5" cx="302.5" cy="482.5" r="37.5"></circle>
            </g>
        </g>
    </g>
</svg>