<?xml version="1.0" encoding="UTF-8"?>
<svg width="100px" height="69px" viewBox="0 0 100 69" version="1.1" xmlns="http://www.w3.org/2000/svg" xmlns:xlink="http://www.w3.org/1999/xlink">
    <!-- Generator: Sketch 50.2 (55047) - http://www.bohemiancoding.com/sketch -->
    <title>Group</title>
    <desc>Created with Sketch.</desc>
    <defs></defs>
    <g id="Page-1" stroke="none" stroke-width="1" fill="none" fill-rule="evenodd">
        <g id="Artboard-Copy-4" transform="translate(-86.000000, -42.000000)" fill="#FFFFFF" fill-rule="nonzero">
            <g id="Group" transform="translate(86.000000, 42.000000)">
                <ellipse id="Oval" cx="41.2980769" cy="64.0645833" rx="2.98076923" ry="2.97083333"></ellipse>
                <g transform="translate(50.961538, 34.979167)" id="Shape">
                    <path d="M6.20192308,11.8833333 C3.60576923,11.8833333 0.817307692,9.67916667 0.817307692,6.08541667 C0.817307692,2.49166667 3.60576923,0.335416667 6.20192308,0.335416667 C8.79807692,0.335416667 11.5865385,2.53958333 11.5865385,6.08541667 C11.5865385,9.63125 8.79807692,11.8833333 6.20192308,11.8833333 Z M7.93269231,1.38958333 C7.40384615,0.766666667 6.82692308,0.622916667 6.20192308,0.622916667 C5.625,0.622916667 5,0.814583333 4.51923077,1.34166667 C3.75,2.15625 3.26923077,4.21666667 3.26923077,6.08541667 C3.26923077,8.00208333 3.75,10.0145833 4.47115385,10.8770833 C5,11.5 5.625,11.64375 6.20192308,11.64375 C6.82692308,11.64375 7.40384615,11.5 7.93269231,10.8770833 C8.65384615,10.0145833 9.13461538,8.00208333 9.13461538,6.08541667 C9.13461538,4.21666667 8.65384615,2.25208333 7.93269231,1.38958333 Z"></path>
                    <path d="M19.2307692,11.64375 L19.2307692,11.5479167 C19.4230769,11.5 19.6153846,11.5 19.8076923,11.4041667 C20.3365385,11.1645833 20.5288462,11.0208333 20.7211538,10.35 C20.8653846,9.82291667 20.8173077,9.00833333 20.8173077,8.24166667 L20.8173077,3.78541667 C20.8173077,2.5875 20.7692308,2.10833333 20.4807692,1.67708333 C20.2403846,1.29375 19.8076923,1.10208333 18.9903846,1.10208333 C18.1730769,1.10208333 16.6826923,2.0125 16.4903846,4.12083333 C16.4423077,4.74375 16.3942308,5.41458333 16.3942308,6.18125 L16.3942308,8.19375 C16.3942308,8.96041667 16.3942308,9.775 16.5384615,10.35 C16.6826923,11.06875 16.875,11.1645833 17.4519231,11.4041667 C17.6442308,11.5 17.8846154,11.5 18.0288462,11.5479167 L18.0288462,11.64375 L12.6442308,11.64375 L12.6442308,11.5479167 C12.8365385,11.5 13.0288462,11.5 13.2211538,11.4041667 C13.75,11.1645833 13.9903846,11.06875 14.1346154,10.35 C14.2788462,9.82291667 14.2307692,8.96041667 14.2307692,8.19375 L14.2307692,3.88125 C14.2307692,3.40208333 14.2307692,2.20416667 14.1826923,1.77291667 C14.0865385,1.29375 13.9423077,1.10208333 13.7019231,0.910416667 C13.4134615,0.71875 13.0288462,0.71875 12.7884615,0.670833333 L12.7884615,0.527083333 L16.3461538,0.527083333 C16.4423077,0.527083333 16.4903846,0.622916667 16.4903846,0.670833333 L16.4423077,3.06666667 L16.4903846,3.06666667 C16.875,1.96458333 17.5,1.34166667 18.0769231,0.958333333 C18.6538462,0.575 19.5192308,0.2875 20.0961538,0.2875 C21.3461538,0.2875 21.9711538,0.479166667 22.4519231,1.05416667 C22.7884615,1.4375 23.125,2.3 23.125,3.64166667 L23.125,8.14583333 C23.125,8.9125 23.0769231,9.72708333 23.2211538,10.2541667 C23.3653846,10.9729167 23.5576923,11.06875 24.1346154,11.3083333 C24.3269231,11.4041667 24.5192308,11.4041667 24.7115385,11.4520833 L24.7115385,11.5479167 L19.2307692,11.5479167 L19.2307692,11.64375 Z"></path>
                    <path d="M35,5.41458333 L27.9807692,5.41458333 C27.9807692,7.85833333 28.4134615,9.53541667 29.1826923,10.3979167 C29.7115385,10.9729167 30.2884615,11.1645833 31.1057692,11.1645833 C33.3173077,11.1645833 34.0865385,9.775 34.5673077,8.05 L34.8557692,8.14583333 C34.4230769,10.3979167 32.8365385,11.8833333 30.625,11.8833333 C29.3269231,11.8833333 27.8846154,11.5479167 26.9230769,10.5416667 C25.8653846,9.43958333 25.4807692,8.05 25.4807692,6.18125 C25.4807692,2.68333333 27.5480769,0.335416667 30.3365385,0.335416667 C33.5576923,0.335416667 35,2.49166667 35,4.55208333 C35.0480769,4.79166667 35.0480769,5.175 35,5.41458333 Z M31.8269231,1.24583333 C31.4423077,0.8625 30.9134615,0.71875 30.3846154,0.71875 C29.8076923,0.71875 29.4711538,0.8625 29.0384615,1.24583333 C28.4615385,1.77291667 28.0769231,3.1625 27.9807692,5.07916667 L31.6346154,5.07916667 C32.3557692,5.07916667 32.5961538,4.83958333 32.5961538,3.92916667 C32.6442308,2.5875 32.3076923,1.725 31.8269231,1.24583333 Z"></path>
                    <path d="M8.60576923,33.78125 C8.55769231,33.78125 8.50961538,33.7333333 8.50961538,33.6375 C8.50961538,33.49375 8.55769231,33.1583333 8.55769231,32.91875 L8.55769231,31.5291667 L8.46153846,31.5291667 C8.07692308,32.3916667 7.83653846,32.7270833 7.25961538,33.20625 C6.73076923,33.6854167 5.86538462,33.8770833 5.14423077,33.8770833 C4.32692308,33.8770833 3.31730769,33.7333333 2.64423077,32.8708333 C2.30769231,32.4395833 1.97115385,31.48125 1.97115385,30.475 L1.97115385,25.5395833 C1.97115385,25.0604167 1.97115385,24.29375 1.92307692,23.9104167 C1.875,23.43125 1.77884615,23.14375 1.44230769,22.9041667 C1.15384615,22.7125 0.673076923,22.7125 0.432692308,22.7125 L0.432692308,22.6166667 L4.08653846,22.6166667 C4.18269231,22.6166667 4.23076923,22.6645833 4.23076923,22.8083333 C4.23076923,23.3354167 4.18269231,24.7729167 4.18269231,25.875 L4.18269231,30.8583333 C4.18269231,31.6729167 4.32692308,32.2479167 4.56730769,32.6791667 C4.90384615,33.1583333 5.38461538,33.35 6.00961538,33.35 C7.06730769,33.35 8.17307692,32.0083333 8.31730769,30.2833333 C8.41346154,29.6125 8.41346154,29.325 8.41346154,28.5583333 L8.41346154,25.5875 C8.41346154,25.1083333 8.41346154,24.3416667 8.36538462,23.9583333 C8.31730769,23.4791667 8.22115385,23.1916667 7.88461538,23 C7.64423077,22.8083333 7.11538462,22.7604167 6.875,22.7604167 L6.875,22.6645833 L10.4807692,22.6645833 C10.5769231,22.6645833 10.6730769,22.7125 10.6730769,22.85625 C10.6730769,23.3833333 10.625,24.8208333 10.625,25.9229167 L10.625,30.7145833 C10.625,31.19375 10.6730769,31.9125 10.6730769,32.34375 C10.7211538,32.8229167 10.9134615,33.1583333 11.2019231,33.35 C11.4423077,33.5416667 11.9230769,33.5416667 12.1634615,33.5895833 L12.1634615,33.6854167 C11.875,33.6854167 8.75,33.78125 8.60576923,33.78125 Z"></path>
                    <path d="M19.6153846,33.6854167 L19.6153846,33.5895833 C19.8076923,33.5416667 20,33.5416667 20.1923077,33.4458333 C20.7211538,33.20625 20.9134615,33.0625 21.1057692,32.3916667 C21.25,31.8645833 21.2019231,31.05 21.2019231,30.2833333 L21.2019231,25.8270833 C21.2019231,24.6291667 21.1538462,24.15 20.8653846,23.71875 C20.625,23.3354167 20.1923077,23.14375 19.375,23.14375 C18.5576923,23.14375 17.0673077,24.0541667 16.875,26.1625 C16.8269231,26.7854167 16.7788462,27.45625 16.7788462,28.2229167 L16.7788462,30.2354167 C16.7788462,31.0020833 16.7788462,31.8166667 16.9230769,32.3916667 C17.0673077,33.1104167 17.2596154,33.20625 17.8365385,33.4458333 C18.0288462,33.5416667 18.2692308,33.5416667 18.4134615,33.5895833 L18.4134615,33.6854167 L12.9807692,33.6854167 L12.9807692,33.5895833 C13.1730769,33.5416667 13.3653846,33.5416667 13.5576923,33.4458333 C14.0865385,33.20625 14.3269231,33.1104167 14.4711538,32.3916667 C14.6153846,31.8645833 14.5673077,31.0020833 14.5673077,30.2354167 L14.5673077,25.9229167 C14.5673077,25.44375 14.5673077,24.2458333 14.5192308,23.8145833 C14.4230769,23.3354167 14.2788462,23.14375 14.0384615,22.9520833 C13.75,22.7604167 13.3653846,22.7604167 13.125,22.7125 L13.125,22.56875 L16.6826923,22.56875 C16.7788462,22.56875 16.8269231,22.6645833 16.8269231,22.7125 L16.7788462,25.1083333 L16.8269231,25.1083333 C17.2115385,24.00625 17.8365385,23.3833333 18.4134615,23 C18.9903846,22.6166667 19.8557692,22.3291667 20.4326923,22.3291667 C21.6826923,22.3291667 22.3076923,22.5208333 22.7884615,23.0958333 C23.125,23.4791667 23.4615385,24.3416667 23.4615385,25.6833333 L23.4615385,30.1875 C23.4615385,30.9541667 23.4134615,31.76875 23.5576923,32.2958333 C23.7019231,33.0145833 23.8942308,33.1104167 24.4711538,33.35 C24.6634615,33.4458333 24.8557692,33.4458333 25.0480769,33.49375 L25.0480769,33.5895833 L19.6153846,33.5895833 L19.6153846,33.6854167 Z"></path>
                    <path d="M25.7211538,33.6854167 L25.7211538,33.5895833 C25.9134615,33.5416667 26.1057692,33.5416667 26.2980769,33.49375 C26.8269231,33.2541667 27.0192308,33.1104167 27.2115385,32.4395833 C27.3076923,32.05625 27.3076923,31.5291667 27.3076923,31.0020833 L27.3076923,26.01875 C27.3076923,25.5395833 27.3076923,24.3416667 27.2596154,23.9104167 C27.1634615,23.43125 27.0192308,23.2395833 26.7788462,23.0479167 C26.5384615,22.85625 26.1538462,22.85625 25.8653846,22.8083333 L25.8653846,22.6645833 L29.375,22.6645833 C29.5192308,22.6645833 29.5673077,22.7125 29.5673077,22.85625 C29.5673077,23.2395833 29.5192308,23.8145833 29.5192308,24.4854167 L29.5192308,31.0020833 C29.5192308,31.5291667 29.5192308,32.05625 29.6153846,32.4395833 C29.7596154,33.1583333 30,33.2541667 30.5288462,33.49375 C30.7211538,33.5895833 30.9134615,33.5895833 31.1057692,33.5895833 L31.1057692,33.6854167 L25.7211538,33.6854167 Z M28.4134615,19.40625 C27.7884615,19.40625 27.0673077,18.9270833 27.0673077,18.1125 C27.0673077,17.2979167 27.8365385,16.7708333 28.4134615,16.7708333 C29.0384615,16.7708333 29.8076923,17.2020833 29.8076923,18.1125 C29.8076923,19.0229167 29.0384615,19.40625 28.4134615,19.40625 Z"></path>
                    <path d="M36.2019231,33.925 C35.1923077,33.925 34.5192308,33.78125 33.9423077,33.2541667 C33.4615385,32.8229167 33.2692308,32.2958333 33.2692308,31.3375 C33.2692308,30.8104167 33.3653846,24.29375 33.3653846,23 C32.9326923,22.9520833 32.2115385,22.9520833 31.8269231,22.9041667 L31.8269231,22.7604167 C33.4615385,22.425 34.5673077,21.41875 35.4807692,17.96875 L35.6730769,17.96875 L35.6730769,22.56875 L38.2692308,22.56875 L38.2692308,23 L35.6730769,23 L35.5769231,31.5770833 C35.5769231,32.5354167 35.9615385,33.1104167 36.9711538,33.1104167 C37.6442308,33.1104167 38.3653846,32.775 38.7980769,32.1520833 L38.8942308,32.2479167 C38.5576923,33.0625 37.3557692,33.925 36.2019231,33.925 Z"></path>
                    <path d="M48.8461538,27.45625 L41.8269231,27.45625 C41.8269231,29.9 42.2596154,31.5770833 43.0288462,32.4395833 C43.5576923,33.0145833 44.1346154,33.20625 44.9519231,33.20625 C47.1634615,33.20625 47.9326923,31.8166667 48.4134615,30.0916667 L48.7019231,30.1875 C48.2692308,32.4395833 46.6826923,33.925 44.4711538,33.925 C43.1730769,33.925 41.7307692,33.5895833 40.7692308,32.5833333 C39.7115385,31.48125 39.3269231,30.0916667 39.3269231,28.2229167 C39.3269231,24.725 41.3942308,22.3770833 44.1826923,22.3770833 C47.4038462,22.3770833 48.8461538,24.5333333 48.8461538,26.59375 C48.8461538,26.8333333 48.8461538,27.2166667 48.8461538,27.45625 Z M45.625,23.2875 C45.2403846,22.9041667 44.7115385,22.7604167 44.1826923,22.7604167 C43.6057692,22.7604167 43.2692308,22.9041667 42.8365385,23.2875 C42.2596154,23.8145833 41.875,25.2041667 41.7788462,27.1208333 L45.4326923,27.1208333 C46.1538462,27.1208333 46.3942308,26.88125 46.3942308,25.9708333 C46.4423077,24.6291667 46.1538462,23.7666667 45.625,23.2875 Z"></path>
                </g>
                <path d="M95.2403846,54.7208333 C95.2403846,54.7208333 97.3076923,54.1458333 98.3653846,49.9770833 L96.2019231,49.9770833 L95.2403846,54.7208333 Z" id="Shape"></path>
                <path d="M0.192307692,24.8208333 L0.192307692,32.1520833 L30.2403846,10.5895833 L30.2403846,51.2708333 C30.2403846,51.2708333 30.0961538,60.3270833 24.5673077,65.2145833 C23.8461538,65.8375 23.0769231,66.26875 22.3557692,66.6041667 C21.1057692,67.1791667 19.7115385,67.275 18.3653846,67.0833333 C9.32692308,65.5979167 8.31730769,54.625 8.22115385,51.0791667 L8.22115385,34.6916667 L0.192307692,40.4895833 L0.192307692,52.0375 C0.192307692,52.46875 0.769230769,70.3416667 20.7211538,68.7604167 C21.2019231,68.7125 22.8846154,68.3291667 23.3653846,68.1854167 C26.4903846,67.13125 30.8173077,64.3520833 32.7403846,56.8770833 C33.5096154,54.0020833 33.6057692,51.7979167 33.6057692,51.7979167 L34.1826923,0.0479166667 L0.192307692,24.8208333 Z" id="Shape"></path>
            </g>
        </g>
    </g>
</svg>